<?xml version="1.0" encoding="utf-8"?>
<!-- Generator: Adobe Illustrator 18.1.1, SVG Export Plug-In . SVG Version: 6.00 Build 0)  -->
<!DOCTYPE svg PUBLIC "-//W3C//DTD SVG 1.1//EN" "http://www.w3.org/Graphics/SVG/1.1/DTD/svg11.dtd">
<svg version="1.1" id="Layer_1" xmlns="http://www.w3.org/2000/svg" xmlns:xlink="http://www.w3.org/1999/xlink" x="0px" y="0px"
	 viewBox="0 0 1008.1 1064.8" enable-background="new 0 0 1008.1 1064.8" xml:space="preserve">
<g opacity="0.5">
	<polygon fill="#14A1B8" points="977.2,252.8 32,252.8 92,232.2 917.2,232.2 	"/>
</g>
<g opacity="0.5">
	<polygon fill="#104264" points="977.2,691.9 32,691.9 92,671.3 917.2,671.3 	"/>
</g>

<circle fill="none" stroke="#14A1B8" stroke-width="4" stroke-miterlimit="10" cx="331.2" cy="104.6" r="70.5"/>
<circle fill="none" stroke="#14A1B8" stroke-width="4" stroke-miterlimit="10" cx="503.7" cy="104.6" r="70.5"/>
<circle fill="none" stroke="#14A1B8" stroke-width="4" stroke-miterlimit="10" cx="676.1" cy="104.6" r="70.5"/>
<circle fill="none" stroke="#14A1B8" stroke-width="4" stroke-miterlimit="10" cx="155.3" cy="957" r="70.5"/>
<circle fill="none" stroke="#14A1B8" stroke-width="4" stroke-miterlimit="10" cx="328.9" cy="957" r="70.5"/>
<circle fill="none" stroke="#14A1B8" stroke-width="4" stroke-miterlimit="10" cx="502.5" cy="957" r="70.5"/>
<circle fill="none" stroke="#14A1B8" stroke-width="4" stroke-miterlimit="10" cx="676" cy="957" r="70.5"/>
<circle fill="none" stroke="#14A1B8" stroke-width="4" stroke-miterlimit="10" cx="849" cy="957" r="70.5"/>
<rect x="32" y="758.2" fill="#104264" width="945.3" height="60.2"/>
<text transform="matrix(1 0 0 1 403.4602 796.3765)" fill="#FFFFFF" font-family="'ProximaNova-Bold'" font-size="20">Connector Framework</text>
<g>
	<rect x="32" y="694.9" fill="#104264" width="945.3" height="60.2"/>
</g>
<text transform="matrix(1 0 0 1 410.4395 733.1573)" fill="#FFFFFF" font-family="'ProximaNova-Bold'" font-size="20">Index Pipelines (ETL)</text>
<rect x="31.6" y="430.5" fill="#0D1B31" width="945.7" height="60.2"/>
<g>
	<rect x="32" y="256" fill="#14A1B8" width="945.3" height="60.2"/>
</g>
<g>
	<text transform="matrix(1 0 0 1 641.6965 606.9191)"><tspan x="0" y="0" fill="#104264" font-family="'ProximaNovaT-Thin'" font-size="103.4363">[    </tspan><tspan x="129.5" y="0" fill="#104264" font-family="'ProximaNovaT-Thin'" font-size="103.4363" letter-spacing="14"> </tspan><tspan x="170.9" y="0" fill="#104264" font-family="'ProximaNovaT-Thin'" font-size="103.4363">]</tspan></text>
	<text transform="matrix(1 0 0 1 716.0657 563.8585)"><tspan x="0" y="0" fill="#104264" font-family="'ProximaNova-Bold'" font-size="18">Scale</tspan><tspan x="-41.3" y="21.7" fill="#104264" font-family="'ProximaNova-Bold'" font-size="18">Fault Tolerance</tspan><tspan x="-18.8" y="43.4" fill="#104264" font-family="'ProximaNova-Bold'" font-size="18">Real-Time</tspan></text>
</g>
<g>
	<path fill="#E17627" d="M555.3,522.9h0.7c1.6,0.2,3,0.9,4.1,2.1c0.8,0.9,1.4,1.9,2.1,2.9c2.6,4.3,5.2,8.7,7.8,13
		c0.5,0.1,0.9-0.2,1.4-0.3c1.9-0.4,3.7-1,5.6-1.5c4-1.1,7.9-2.1,11.9-3.2c1.7-0.4,3.4-0.9,5.1-0.4c0.9,0.2,1.8,0.6,2.4,1.3
		c0.9,0.9,1.1,2.3,0.9,3.6c-0.2,1.5-1.1,2.7-2,3.9c-4.1,4.9-8.3,9.7-12.4,14.6c-0.5,0.7-1.2,1.3-1.6,2c0.3,0.8,0.8,1.6,1.2,2.3
		c2.4,4.6,4.9,9.2,7.2,13.8c0.9,1.6,1.2,3.4,0.7,5.2c-0.3,1.1-0.9,2.1-1.7,2.9c-1.3,1.2-3.2,1.7-5,1.9c-0.7-0.1-1.4-0.2-2-0.3
		c-4.8-1.5-9.5-2.9-14.3-4.4c0-0.3,0-0.6,0-0.9c-0.2-1.1-0.3-2.3-0.6-3.4c-0.4-1.7-0.5-3.5-0.9-5.2c0.8,0.2,1.5,0.4,2.3,0.6
		c3.9,1.1,7.7,2.1,11.6,3.2c-0.6-0.9-1-2-1.6-2.9c-2.3-4.3-4.5-8.6-6.8-12.9c0.6-0.8,1.2-1.5,1.9-2.2c3.8-4.4,7.5-8.8,11.2-13.2
		c-3.2,0.9-6.5,1.7-9.7,2.6c-2.9,0.8-5.8,1.5-8.7,2.3c-0.3,0.1-0.6,0.1-0.7-0.2c-1.1-1.8-2.2-3.6-3.3-5.4c-1.9-3.2-3.8-6.3-5.7-9.4
		c-0.5,1.9-0.7,3.9-1.1,5.8c-0.4,1.6-0.5,3.2-0.9,4.8c-0.4,2.7-1,5.5-1.4,8.2c-5.2,1.7-10.4,3.3-15.6,5c-1.1,0.3-2.2,0.7-3.3,1
		c0.7,0.2,1.3,0.5,2,0.8c2.2,0.9,4.5,1.8,6.7,2.7c2,0.8,3.9,1.6,5.9,2.3c-3.3,2.2-6.7,4.4-10.1,6.6c-3.4-1.5-6.7-3-10.1-4.5
		c-1.4-0.6-2.9-1.3-4.1-2.3c-0.8-0.7-1.6-1.5-2.1-2.5c-0.9-1.5-1-3.3-0.4-4.9c0.5-1.1,1.4-2,2.3-2.7c1.4-1,3.1-1.6,4.8-2.1
		c5.6-1.8,11.2-3.6,16.9-5.3c0.4-1.8,0.6-3.7,1-5.5c0.3-2.1,0.8-4.1,1.1-6.2c0.5-2.4,0.8-4.9,1.5-7.3c0.4-1.1,0.9-2.2,1.6-3.1
		C551.9,524.3,553.5,523.2,555.3,522.9L555.3,522.9z"/>
	<path fill="#201B19" d="M409,569.5c2.6-1.7,5.7-2.6,8.8-2.7c3-0.1,6.1,0.7,8.5,2.6c2,1.5,3.5,3.5,4.8,5.6c-2.8,2.1-5.7,4.2-8.5,6.3
		c-0.9-1.8-2.1-3.5-3.8-4.5c-2.4-1.4-5.7-0.8-7.3,1.4c-0.8,1-0.8,2.5-0.2,3.6c0.5,0.9,1.2,1.6,1.9,2.4c2.3,2.7,4.9,5.2,7.3,7.8
		c2.2,2.2,4.2,4.8,5,7.9c0.7,3,0.2,6.1-0.9,8.9c-1.9,4.8-5.9,8.5-10.7,10.4c-3.2,1.2-6.6,1.5-10,1.1c-2.8-0.4-5.4-1.6-7.4-3.6
		c-1.9-2-3.1-4.6-3.9-7.2c3.1-1.6,6.1-3.3,9.2-4.9c0.8,2.4,2,4.9,4.4,6.1c3.2,1.6,7.3,0.1,9.1-2.9c1-1.7,0.7-3.9-0.4-5.5
		c-1.8-2.5-4.1-4.6-6.3-6.8c-1.6-1.7-3.1-3.4-4.5-5.2c-0.9-1.3-1.8-2.6-2.3-4.1c-1-2.7-0.9-5.7,0.1-8.3
		C403.2,574.3,405.9,571.5,409,569.5L409,569.5z"/>
	<path fill="#201B19" d="M540.5,574.9c3.4-2.3,6.9-4.4,10.3-6.7c-1,7.6-2,15.1-3,22.7c5.2-5.7,10.4-11.5,15.6-17.2
		c0.5,3.1,1,6.2,1.6,9.3c-3.6,3.8-7.2,7.6-10.8,11.3c3.5,5,7.1,10,10.7,15c2.4,3.3,4.7,6.6,7.1,9.9c-3.8,0-7.6,0-11.4,0
		c-4.5-6.9-9.1-13.8-13.7-20.7c-0.6,3.7-1,7.4-1.5,11.1c-0.4,3.2-0.8,6.4-1.3,9.7c-3.1,0-6.3,0-9.4,0c1.2-8.9,2.3-17.9,3.5-26.8
		C539,586.6,539.7,580.7,540.5,574.9L540.5,574.9z"/>
	<path fill="#201B19" d="M490.8,580.8c3.4-0.7,7.1-0.5,10.4,0.7c2.6,1,5,2.6,6.8,4.7c2.8,3.2,4.2,7.5,4.1,11.8
		c0,1.4-0.3,2.9-0.4,4.3c-0.7,5.6-1.5,11.2-2.2,16.8c-2.8,0-5.6,0-8.4,0c0.4-3.3,0.9-6.6,1.3-9.9c0.3-3,1-6.1,1-9.1
		c0-2.9-0.6-6-2.6-8.2c-1.6-1.9-4.1-2.8-6.6-2.9c-5.1-0.2-10,3-12.1,7.5c-1.1,2.3-1.6,5.1-0.9,7.6c0.6,2.4,2.1,4.6,4.3,5.9
		c2.4,1.4,5.4,1.8,8.1,1.1c2.5-0.6,4.8-2.1,6.6-4c-0.5,3.6-1,7.2-1.4,10.8c-5.1,2.5-11.2,2.9-16.4,0.6c-2.7-1.2-5.1-3.1-6.9-5.5
		c-1.7-2.3-2.7-5.1-3.1-8c-0.7-5.5,1.1-11.1,4.4-15.5C480.1,585.2,485.2,581.9,490.8,580.8L490.8,580.8z"/>
	<path fill="#201B19" d="M517.2,591.5c0.9-5.5,6-10,11.6-10.1c2.2,0,4.4,0,6.7,0c-0.4,2.9-0.7,5.8-1.2,8.7c-1.7,0-3.5,0-5.2,0
		c-1.6-0.1-3.2,1.3-3.3,2.9c-1.2,8.7-2.3,17.5-3.5,26.2c-2.9,0-5.8,0-8.7,0c0.8-6.2,1.6-12.5,2.4-18.7
		C516.5,597.5,516.8,594.5,517.2,591.5L517.2,591.5z"/>
	<path fill="#201B19" d="M468.8,595.7c-0.3-2.7-1.2-5.4-2.7-7.7c-1.5-2.3-3.6-4.2-6-5.4c-2.4-1.3-5.1-2-7.9-2.1
		c-3.4-0.1-6.7,0.6-9.8,2c-6.9,3.2-12.2,9.9-13.4,17.5c-1.4,10.3-2.7,20.7-4.1,31c2.8,0,5.6,0,8.4,0c0.6-4.8,1.3-9.6,1.9-14.4
		c0.7,0.5,1.4,1,2.2,1.4c3.1,1.7,6.8,2.4,10.3,2.1c5.8-0.5,11.3-3.4,15.2-7.7C467.1,607.9,469.4,601.8,468.8,595.7z M459.5,602.8
		c-1.7,4.8-6.4,8.4-11.5,8.7c-2.8,0.2-5.8-0.9-7.8-3c-1.9-2-2.8-4.8-2.6-7.5c0.4-5.9,5.3-11.1,11.1-11.9c2.3-0.3,4.7,0,6.7,1.2
		c2.4,1.3,4.1,3.7,4.6,6.3C460.4,598.7,460.3,600.9,459.5,602.8z"/>
</g>
<g>
	<path fill="#262130" d="M222.4,594.8c-2-1.1-4.2-1.8-6.7-2.2c-2.4-0.4-4.8-0.6-7.3-0.6c-2,0-4-0.2-5.9-0.5
		c-1.9-0.3-3.6-0.9-5.2-1.8c-1.5-0.8-2.7-2-3.6-3.5c-0.9-1.4-1.4-3.4-1.4-5.7c0-2,0.5-3.8,1.4-5.2c0.9-1.4,2.1-2.6,3.5-3.5
		c1.5-0.9,3.2-1.5,5-1.9c3.2-0.7,6.5-0.8,10-0.3c1.3,0.2,2.7,0.5,3.9,1c1.2,0.5,2.4,1.1,3.5,1.9c1,0.8,2,1.7,2.8,2.9l0.4,0.6
		l3.2-1.4l-0.7-1c-0.9-1.2-1.8-2.3-2.9-3.3c-1.1-1-2.3-1.8-3.7-2.5c-1.4-0.6-3-1.1-4.7-1.5c-1.7-0.3-3.7-0.5-5.9-0.5
		c-2.1,0-4.3,0.2-6.6,0.7c-2.2,0.5-4.3,1.3-6.2,2.4c-1.9,1.1-3.5,2.7-4.7,4.5c-1.2,1.9-1.8,4.2-1.8,6.9c0,2.8,0.6,5.2,1.7,7.2
		c1.1,1.9,2.6,3.5,4.4,4.6c1.8,1.1,3.9,1.9,6.2,2.4c2.3,0.5,4.7,0.7,7.1,0.7c1.9,0,4,0.1,6.1,0.4c2,0.3,3.9,0.9,5.7,1.7
		c1.7,0.8,3.1,2,4.1,3.4c1,1.4,1.6,3.3,1.6,5.6c0,2.1-0.5,3.8-1.5,5.3c-1,1.5-2.4,2.7-4,3.6c-1.6,0.9-3.5,1.6-5.5,2.1
		c-2.1,0.4-4.1,0.6-6.1,0.6c-3.3,0-6.5-0.6-9.6-1.9c-3.1-1.2-5.9-3.1-8.2-5.5l-0.6-0.6l-2.6,2.2l0.7,0.7c2.3,2.3,5.1,4.3,8.5,5.9
		c3.4,1.7,7.3,2.5,11.8,2.5c2.1,0,4.4-0.2,6.7-0.7c2.4-0.5,4.6-1.3,6.6-2.5c2-1.2,3.7-2.7,5.1-4.6c1.3-1.9,2-4.3,2-7.1
		c0-2.9-0.6-5.3-1.9-7.2C226.2,597.4,224.5,595.9,222.4,594.8z"/>
	<path fill="#262130" d="M266.7,586.7c-1.7-2-3.7-3.6-6.1-4.8c-2.4-1.3-5.1-1.9-8-1.9c-2.7,0-5.2,0.6-7.5,1.7
		c-2.3,1.1-4.4,2.7-6.1,4.6c-1.7,1.9-3.1,4.2-4.1,6.7c-1,2.5-1.5,5.2-1.5,8c0,2.6,0.5,5.2,1.4,7.7c0.9,2.4,2.2,4.7,3.9,6.6
		c1.7,1.9,3.7,3.5,6.1,4.7c2.4,1.2,5,1.8,7.9,1.9h0h0c2.7-0.1,5.3-0.7,7.6-1.8c2.3-1.1,4.4-2.7,6.1-4.6c1.7-1.9,3.1-4.1,4.1-6.6
		c1-2.5,1.5-5.1,1.5-7.9c0-2.5-0.5-5-1.4-7.5C269.7,590.9,268.4,588.6,266.7,586.7z M252.7,618.4c-2.3,0-4.4-0.5-6.3-1.4
		c-1.9-1-3.6-2.3-5-3.9c-1.4-1.6-2.5-3.5-3.3-5.6c-0.8-2.1-1.3-4.4-1.4-6.6c0-2.1,0.4-4.2,1.1-6.3c0.8-2.1,1.8-4,3.3-5.7
		c1.4-1.7,3.1-3,5.1-4.1c1.9-1,4.1-1.6,6.5-1.6c2.2,0,4.3,0.5,6.2,1.5c1.9,1,3.6,2.3,5.1,3.9c1.4,1.6,2.6,3.5,3.4,5.6
		c0.8,2.1,1.2,4.3,1.2,6.6c0,2.1-0.4,4.2-1.1,6.3c-0.8,2.1-1.8,4-3.3,5.7c-1.4,1.7-3.1,3-5.1,4C257.2,617.9,255,618.4,252.7,618.4z"
		/>
	<path fill="#262130" d="M289.5,617.4c-0.6,0.1-1.1,0.2-1.5,0.3c-0.4,0.1-0.9,0.1-1.4,0.2c-0.5,0.1-0.9,0.1-1.4,0.1
		c-1.1,0-2-0.4-2.6-1.1c-0.6-0.9-1-1.7-1-2.6v-49.5h-3.4v49.5c0,1.9,0.6,3.5,1.7,4.9c1.2,1.4,2.9,2.2,5.1,2.2c0.7,0,1.4,0,2-0.1
		c0.6-0.1,1.2-0.2,1.7-0.2c0.5-0.1,1.1-0.2,1.8-0.3l1.1-0.3l-1.5-3.2L289.5,617.4z"/>
	<path fill="#262130" d="M304.1,583.4c-1.8,1.2-3.3,2.8-4.6,4.7v-7.5h-3.4V621h3.4v-25.2c0.5-1.7,1.1-3.2,1.9-4.6
		c0.8-1.4,1.8-2.7,3-3.7c1.2-1,2.6-1.9,4.1-2.5c1.5-0.6,3.2-1,5.1-1.1l0.9,0v-3.3h-0.9C309.9,580.5,306.7,581.5,304.1,583.4z"/>
	<g>
		<path fill="#D84426" d="M352.4,543.7l-28,30.3l35.2-16.2C358.5,552.3,356,547.5,352.4,543.7z"/>
		<path fill="#D84426" d="M331.6,534.7c-3.9,0-7.6,0.8-10.9,2.2l-3.8,31.7l18.8-33.5C334.3,534.8,333,534.7,331.6,534.7z"/>
		<path fill="#D84426" d="M359.8,559.5l-33.3,18.7l31.3-3.7c1.5-3.4,2.3-7.2,2.3-11.2C360.1,561.9,360,560.7,359.8,559.5z"/>
		<path fill="#D84426" d="M347.6,586.8c3.7-2.5,6.8-5.9,9-9.9l-29.3,5.8L347.6,586.8z"/>
		<path fill="#D84426" d="M337.4,535.3l-16.3,35.4l30.3-28C347.6,539,342.8,536.4,337.4,535.3z"/>
		<path fill="#D84426" d="M334,591.5c3.2-0.3,6.2-1,8.9-2.2l-16.4-1.9L334,591.5z"/>
		<path fill="#D84426" d="M305.6,551.4c-1.3,2.8-2.1,5.9-2.4,9.2l4.4,7.9L305.6,551.4z"/>
		<path fill="#D84426" d="M318.2,538c-4,2.1-7.5,5.2-10,9l4.1,20.8L318.2,538z"/>
	</g>
</g>
<text transform="matrix(1 0 0 1 451.1396 294.1991)" fill="#FFFFFF" font-family="'ProximaNova-Bold'" font-size="20">Fusion APIs</text>
<g>
	<rect x="227" y="319.2" fill="#14A1B8" width="554.9" height="108.4"/>
	<rect x="238.4" y="328.4" opacity="0.5" fill="#104264" width="172.1" height="46.7"/>
	<text transform="matrix(1 0 0 1 259.6653 357.1501)" fill="#FFFFFF" font-family="'ProximaNova-Regular'" font-size="16">Recommendations</text>
	<rect x="419.2" y="328.4" opacity="0.5" fill="#104264" width="172.1" height="46.7"/>
	<text transform="matrix(1 0 0 1 450.1306 357.15)" fill="#FFFFFF" font-family="'ProximaNova-Regular'" font-size="16">Personalization</text>
	<rect x="600.1" y="328.4" opacity="0.5" fill="#104264" width="172.1" height="46.7"/>
	<text transform="matrix(1 0 0 1 620.175 357.15)" fill="#FFFFFF" font-family="'ProximaNova-Regular'" font-size="16">Contextual Search</text>
	<rect x="31.6" y="319.2" fill="#14A1B8" width="192.4" height="108.4"/>
	<text transform="matrix(1 0 0 1 58.5188 380.9837)" fill="#FFFFFF" font-family="'ProximaNova-Bold'" font-size="20">Relevancy Tool</text>
	<text transform="matrix(1 0 0 1 334.6582 408.7958)" fill="#FFFFFF" font-family="'ProximaNova-Bold'" font-size="20">Machine Learning / Signal Processing</text>
	<rect x="785" y="319.2" fill="#14A1B8" width="192.7" height="108.4"/>
	<text transform="matrix(1 0 0 1 840.5051 380.9837)" fill="#FFFFFF" font-family="'ProximaNova-Bold'" font-size="20">Analytics</text>
</g>
<g>
	<text transform="matrix(1 0 0 1 482.915 468.7694)" fill="#FFFFFF" font-family="'ProximaNova-Bold'" font-size="20">Security</text>
	<g>
		<path fill="#FFFFFF" d="M452.9,452.4c0-2,1.6-3.7,3.7-3.7c2,0,3.7,1.6,3.7,3.7v6.3h-7.3V452.4L452.9,452.4z M465.9,472.9
			c0,0.2-0.2,0.4-0.4,0.4h-17.7c-0.2,0-0.4-0.2-0.4-0.4v-11.5c0-0.2,0.2-0.4,0.4-0.4h17.7c0.2,0,0.4,0.2,0.4,0.4V472.9L465.9,472.9z
			 M465.5,458.7h-3v-6.3c0-3.3-2.7-6-6-6c-3.3,0-6,2.7-6,6v6.3h-2.7c-1.5,0-2.7,1.2-2.7,2.7v11.5c0,1.5,1.2,2.7,2.7,2.7h17.7
			c1.5,0,2.7-1.2,2.7-2.7v-11.5C468.2,459.9,467,458.7,465.5,458.7L465.5,458.7z"/>
	</g>
</g>
<text transform="matrix(1 0 0 1 307.4172 136.9414)" fill="#0D1B31" font-family="'ProximaNova-Regular'" font-size="21">Apps</text>
<g>
	<path fill="#0D1B31" d="M358.2,68.3c1.2,1.2,1.7,2.6,1.7,4.2v33.6c0,1.6-0.6,3.1-1.7,4.2c-1.2,1.2-2.6,1.7-4.2,1.7h-45.6
		c-1.6,0-3.1-0.6-4.2-1.7c-1.2-1.2-1.7-2.6-1.7-4.2V72.5c0-1.6,0.6-3.1,1.7-4.2c1.2-1.2,2.6-1.7,4.2-1.7H354
		C355.7,66.5,357.1,67.1,358.2,68.3z M305.9,69.9c-0.7,0.7-1.1,1.6-1.1,2.5v6h52.8v-6c0-1-0.4-1.8-1.1-2.5c-0.7-0.7-1.6-1.1-2.5-1.1
		h-45.6C307.4,68.9,306.6,69.2,305.9,69.9z M356.5,108.6c0.7-0.7,1.1-1.6,1.1-2.5V80.9h-52.8v25.2c0,1,0.4,1.8,1.1,2.5
		c0.7,0.7,1.6,1.1,2.5,1.1H354C355,109.6,355.8,109.3,356.5,108.6z"/>
	<path fill="#DC322F" d="M319.8,93.1c0.6,0.5,0.6,1.1,0,1.7l-6,6.1c-0.2,0.2-0.5,0.3-0.9,0.3c-0.3,0-0.6-0.1-0.8-0.3
		c-0.4-0.6-0.4-1.2,0-1.8l5.2-5.1l-5.2-5.2c-0.6-0.5-0.6-1.1,0-1.7c0.6-0.6,1.2-0.6,1.7,0L319.8,93.1z"/>
	<path fill="#DC322F" d="M337,95.1c0,0.8-0.4,1.2-1.2,1.2h-9.5c-0.8,0-1.2-0.4-1.2-1.2c0-0.7,0.4-1.1,1.2-1.1h9.5
		C336.6,94,337,94.3,337,95.1z"/>
	<path fill="#DC322F" d="M311.1,72c-0.5-0.5-1.1-0.7-1.7-0.7c-0.6,0-1.1,0.2-1.6,0.7c-0.5,0.5-0.7,1.1-0.7,1.7
		c0,0.6,0.2,1.1,0.7,1.6c0.5,0.5,1,0.7,1.6,0.7c0.7,0,1.3-0.2,1.7-0.7c0.5-0.5,0.7-1,0.7-1.6C311.8,73,311.6,72.4,311.1,72z"/>
	<path fill="#DC322F" d="M318.3,72c-0.5-0.5-1.1-0.7-1.7-0.7c-0.6,0-1.1,0.2-1.6,0.7c-0.5,0.5-0.7,1.1-0.7,1.7
		c0,0.6,0.2,1.1,0.7,1.6c0.5,0.5,1,0.7,1.6,0.7c0.7,0,1.3-0.2,1.7-0.7c0.5-0.5,0.7-1,0.7-1.6C319,73,318.8,72.4,318.3,72z"/>
	<path fill="#DC322F" d="M325.5,72c-0.5-0.5-1.1-0.7-1.7-0.7c-0.6,0-1.1,0.2-1.6,0.7c-0.5,0.5-0.7,1.1-0.7,1.7
		c0,0.6,0.2,1.1,0.7,1.6s1,0.7,1.6,0.7c0.7,0,1.3-0.2,1.7-0.7c0.5-0.5,0.7-1,0.7-1.6C326.2,73,326,72.4,325.5,72z"/>
</g>
<text transform="matrix(1 0 0 1 472.4915 136.9413)" fill="#0D1B31" font-family="'ProximaNova-Regular'" font-size="21">Mobile</text>
<g>
	<path fill="#0D1B31" d="M491.7,110.3c-1.2-1.2-1.7-2.6-1.7-4.2V72.5c0-1.6,0.6-3.1,1.7-4.2c1.2-1.2,2.6-1.7,4.2-1.7h15.6
		c1.6,0,3.1,0.6,4.2,1.7c1.2,1.2,1.7,2.6,1.7,4.2v33.6c0,1.6-0.6,3.1-1.7,4.2c-1.2,1.2-2.6,1.7-4.2,1.7h-15.6
		C494.2,112,492.8,111.4,491.7,110.3z M514,108.6c0.7-0.7,1.1-1.6,1.1-2.5v-6l-22.8,0v6c0,1,0.4,1.8,1.1,2.5
		c0.7,0.7,1.6,1.1,2.5,1.1h15.6C512.4,109.6,513.3,109.3,514,108.6z M493.3,69.9c-0.7,0.7-1.1,1.6-1.1,2.5v25.2h22.8V72.5
		c0-1-0.4-1.8-1.1-2.5c-0.7-0.7-1.6-1.1-2.5-1.1h-15.6C494.9,68.9,494,69.2,493.3,69.9z"/>
	<path fill="#DC322F" d="M505.3,103.4c-0.5-0.5-1.1-0.7-1.7-0.7c-0.6,0-1.1,0.2-1.6,0.7c-0.5,0.5-0.7,1.1-0.7,1.7
		c0,0.6,0.2,1.1,0.7,1.6s1,0.7,1.6,0.7c0.7,0,1.3-0.2,1.7-0.7s0.7-1,0.7-1.6C506.1,104.5,505.8,103.9,505.3,103.4z"/>
</g>
<text transform="matrix(1 0 0 1 659.1531 136.9414)" fill="#0D1B31" font-family="'ProximaNova-Regular'" font-size="21">Silk</text>
<g>
	<path fill="#0D1B31" d="M703.1,71c1.2,1.2,1.7,2.6,1.7,4.2v33.6c0,1.6-0.6,3.1-1.7,4.2c-1.2,1.2-2.6,1.7-4.2,1.7h-45.6
		c-1.6,0-3.1-0.6-4.2-1.7c-1.2-1.2-1.7-2.6-1.7-4.2V75.2c0-1.6,0.6-3.1,1.7-4.2c1.2-1.2,2.6-1.7,4.2-1.7h45.6
		C700.6,69.3,702,69.8,703.1,71z M650.8,72.7c-0.7,0.7-1.1,1.6-1.1,2.5v6h52.8v-6c0-1-0.4-1.8-1.1-2.5c-0.7-0.7-1.6-1.1-2.5-1.1
		h-45.6C652.3,71.6,651.5,72,650.8,72.7z M701.4,111.3c0.7-0.7,1.1-1.6,1.1-2.5V83.6h-52.8v25.2c0,1,0.4,1.8,1.1,2.5
		c0.7,0.7,1.6,1.1,2.5,1.1h45.6C699.9,112.4,700.7,112,701.4,111.3z"/>
	<path fill="#DC322F" d="M656,74.7c-0.5-0.5-1.1-0.7-1.7-0.7c-0.6,0-1.1,0.2-1.6,0.7c-0.5,0.5-0.7,1.1-0.7,1.7
		c0,0.6,0.2,1.1,0.7,1.6c0.5,0.5,1,0.7,1.6,0.7c0.7,0,1.3-0.2,1.7-0.7c0.5-0.5,0.7-1,0.7-1.6C656.7,75.8,656.5,75.2,656,74.7z"/>
	<path fill="#DC322F" d="M663.2,74.7c-0.5-0.5-1.1-0.7-1.7-0.7c-0.6,0-1.1,0.2-1.6,0.7c-0.5,0.5-0.7,1.1-0.7,1.7
		c0,0.6,0.2,1.1,0.7,1.6c0.5,0.5,1,0.7,1.6,0.7c0.7,0,1.3-0.2,1.7-0.7c0.5-0.5,0.7-1,0.7-1.6C663.9,75.8,663.7,75.2,663.2,74.7z"/>
	<path fill="#DC322F" d="M670.4,74.7c-0.5-0.5-1.1-0.7-1.7-0.7c-0.6,0-1.1,0.2-1.6,0.7c-0.5,0.5-0.7,1.1-0.7,1.7
		c0,0.6,0.2,1.1,0.7,1.6c0.5,0.5,1,0.7,1.6,0.7c0.7,0,1.3-0.2,1.7-0.7c0.5-0.5,0.7-1,0.7-1.6C671.1,75.8,670.9,75.2,670.4,74.7z"/>
	<path fill="#DC322F" d="M653.8,108.2c-0.4,0-0.7-0.1-1-0.4c-0.6-0.6-0.7-1.5-0.1-2.1l7.5-8.2c0.3-0.3,0.8-0.5,1.2-0.5
		c0.5,0,0.9,0.3,1.1,0.6l1.8,2.6l7.9-7.3c0.3-0.3,0.7-0.4,1.1-0.4c0.4,0,0.8,0.2,1.1,0.5l6.7,8.1l15.2-12.5c0.6-0.5,1.6-0.4,2.1,0.2
		c0.5,0.6,0.4,1.6-0.2,2.1l-16.4,13.4c-0.6,0.5-1.6,0.4-2.1-0.2l-6.7-8l-8,7.4c-0.3,0.3-0.7,0.4-1.2,0.4c-0.4,0-0.8-0.3-1.1-0.6
		l-1.7-2.4l-6.2,6.8C654.6,108.1,654.2,108.2,653.8,108.2z"/>
</g>
<text transform="matrix(1 0 0 1 112.241 995.1292)" fill="#0D1B31" font-family="'ProximaNova-Regular'" font-size="21">Database</text>
<path fill="#DC342E" d="M179,927v29.9c0,2.9-2.2,5.4-6.6,7.4c-4.4,2-9.8,3-16.3,3c-6.4,0-11.9-1-16.3-3c-4.4-2-6.6-4.4-6.6-7.4V927
	c0-2.9,2.2-5.3,6.6-7.3c4.4-2,9.8-3,16.3-3c6.4,0,11.9,1,16.3,3C176.8,921.7,179,924.1,179,927z M135.5,927c0,2.3,2.1,4.2,6.4,5.7
	c4.3,1.5,9,2.3,14.2,2.3c5.2,0,9.9-0.8,14.2-2.3c4.3-1.5,6.4-3.5,6.4-5.7s-2.1-4.2-6.4-5.7c-4.3-1.5-9-2.3-14.2-2.3
	c-5.2,0-9.9,0.8-14.2,2.3C137.6,922.8,135.5,924.7,135.5,927z M176.7,931.6c-4,3.8-10.9,5.7-20.6,5.7c-9.7,0-16.6-1.9-20.6-5.7v4.6
	c0,2.3,2.1,4.2,6.4,5.7c4.3,1.5,9,2.3,14.2,2.3c5.2,0,9.9-0.8,14.2-2.3c4.3-1.5,6.4-3.4,6.4-5.7V931.6z M176.7,940.7
	c-1.9,1.7-4.6,3.1-8.3,4.2s-7.8,1.6-12.3,1.6c-4.5,0-8.6-0.5-12.3-1.6c-3.7-1.1-6.5-2.5-8.3-4.2v5.8c0,2.3,2.1,4.2,6.4,5.7
	c4.3,1.5,9,2.3,14.2,2.3c5.2,0,9.9-0.8,14.2-2.3c4.3-1.5,6.4-3.4,6.4-5.7V940.7z M176.7,956.8V951c-1.9,1.7-4.6,3.1-8.3,4.2
	c-3.7,1.1-7.8,1.6-12.3,1.6c-4.5,0-8.6-0.5-12.3-1.6c-3.7-1.1-6.5-2.5-8.3-4.2v5.8c0,2.3,2.1,4.2,6.4,5.7c4.3,1.5,9,2.3,14.2,2.3
	c5.2,0,9.9-0.8,14.2-2.3C174.6,961,176.7,959.1,176.7,956.8z"/>
<text transform="matrix(1 0 0 1 306.2703 995.129)" fill="#0D1B31" font-family="'ProximaNova-Regular'" font-size="21">Web</text>
<g>
	<path fill="#0D1B31" d="M355.5,920.9c1.2,1.2,1.7,2.6,1.7,4.2v33.6c0,1.6-0.6,3.1-1.7,4.2c-1.2,1.2-2.6,1.7-4.2,1.7h-45.6
		c-1.6,0-3.1-0.6-4.2-1.7c-1.2-1.2-1.7-2.6-1.7-4.2v-33.6c0-1.6,0.6-3.1,1.7-4.2c1.2-1.2,2.6-1.7,4.2-1.7h45.6
		C352.9,919.2,354.3,919.8,355.5,920.9z M303.2,922.6c-0.7,0.7-1.1,1.6-1.1,2.5v6h52.8v-6c0-1-0.4-1.8-1.1-2.5
		c-0.7-0.7-1.6-1.1-2.5-1.1h-45.6C304.7,921.5,303.9,921.9,303.2,922.6z M353.8,961.2c0.7-0.7,1.1-1.6,1.1-2.5v-25.2h-52.8v25.2
		c0,1,0.4,1.8,1.1,2.5c0.7,0.7,1.6,1.1,2.5,1.1h45.6C352.3,962.3,353.1,961.9,353.8,961.2z"/>
	<path fill="#DC322F" d="M317.1,945.7c0.6,0.5,0.6,1.1,0,1.7l-6,6.1c-0.2,0.2-0.5,0.3-0.9,0.3c-0.3,0-0.6-0.1-0.8-0.3
		c-0.4-0.6-0.4-1.2,0-1.8l5.2-5.1l-5.2-5.2c-0.6-0.5-0.6-1.1,0-1.7c0.6-0.6,1.2-0.6,1.7,0L317.1,945.7z"/>
	<path fill="#DC322F" d="M334.3,947.7c0,0.8-0.4,1.2-1.2,1.2h-9.5c-0.8,0-1.2-0.4-1.2-1.2c0-0.7,0.4-1.1,1.2-1.1h9.5
		C333.9,946.6,334.3,947,334.3,947.7z"/>
	<path fill="#DC322F" d="M308.4,924.6c-0.5-0.5-1.1-0.7-1.7-0.7c-0.6,0-1.1,0.2-1.6,0.7c-0.5,0.5-0.7,1.1-0.7,1.7
		c0,0.6,0.2,1.1,0.7,1.6c0.5,0.5,1,0.7,1.6,0.7c0.7,0,1.3-0.2,1.7-0.7c0.5-0.5,0.7-1,0.7-1.6C309.1,925.7,308.9,925.1,308.4,924.6z"
		/>
	<path fill="#DC322F" d="M315.6,924.6c-0.5-0.5-1.1-0.7-1.7-0.7c-0.6,0-1.1,0.2-1.6,0.7c-0.5,0.5-0.7,1.1-0.7,1.7
		c0,0.6,0.2,1.1,0.7,1.6c0.5,0.5,1,0.7,1.6,0.7c0.7,0,1.3-0.2,1.7-0.7c0.5-0.5,0.7-1,0.7-1.6C316.3,925.7,316.1,925.1,315.6,924.6z"
		/>
	<path fill="#DC322F" d="M322.8,924.6c-0.5-0.5-1.1-0.7-1.7-0.7c-0.6,0-1.1,0.2-1.6,0.7s-0.7,1.1-0.7,1.7c0,0.6,0.2,1.1,0.7,1.6
		c0.5,0.5,1,0.7,1.6,0.7c0.7,0,1.3-0.2,1.7-0.7c0.5-0.5,0.7-1,0.7-1.6C323.5,925.7,323.3,925.1,322.8,924.6z"/>
</g>
<text transform="matrix(1 0 0 1 484.5408 995.1287)" fill="#0D1B31" font-family="'ProximaNova-Regular'" font-size="21">File</text>
<path fill="#DC342E" d="M520.1,931.7V959c0,0.8-0.4,1.2-1.1,1.2h-3.4v3.4c0,0.7-0.4,1.1-1.2,1.1H485c-0.8,0-1.2-0.4-1.2-1.1v-38.7
	c0-0.8,0.4-1.2,1.2-1.2h3.4v-3.4c0-0.7,0.4-1.1,1.1-1.1h18.2h0.4c0.2,0.1,0.4,0.2,0.4,0.3l11.3,11.3l0.1,0.2
	c0.1,0.1,0.1,0.2,0.2,0.2V931.7z M513.3,960.1h-23.9c-0.7,0-1.1-0.4-1.1-1.2V926H486v36.3h27.3V960.1z M517.9,957.8v-24.9h-10.2
	c-0.8,0-1.2-0.4-1.2-1.2v-10.2h-15.9v36.3H517.9z M508.8,930.5h7.5l-7.5-7.5V930.5z"/>
<text transform="matrix(1 0 0 1 656.5803 995.1289)" fill="#0D1B31" font-family="'ProximaNova-Regular'" font-size="21">Logs</text>
<g>
	<path fill="#0D1B31" d="M698.9,929.7v37.8c0,0.8-0.4,1.1-1.1,1.1h-37.8c-0.8,0-1.1-0.4-1.1-1.1v-51.2c0-0.8,0.4-1.1,1.1-1.1h24.5
		c0.2,0,0.3,0,0.4,0.1c0.1,0,0.3,0.1,0.4,0.2l13.4,13.4c0.1,0.1,0.2,0.3,0.2,0.4C698.9,929.3,698.9,929.5,698.9,929.7z M696.7,966.5
		v-35.7h-12.3c-0.7,0-1-0.3-1-1v-12.3H661v49.1H696.7z M685.5,928.5h9.6l-9.6-9.6V928.5z"/>
	<path fill="#DC322F" d="M665.5,933V962h26.7V933H665.5z M674.4,959.8h-6.7v-4.5h6.7V959.8z M674.4,953.1h-6.7v-4.5h6.7V953.1z
		 M674.4,946.4h-6.7v-4.5h6.7V946.4z M674.4,939.7h-6.7v-4.5h6.7V939.7z M690,959.8h-13.4v-4.5H690V959.8z M690,953.1h-13.4v-4.5
		H690V953.1z M690,946.4h-13.4v-4.5H690V946.4z M690,939.7h-13.4v-4.5H690V939.7z"/>
</g>
<g>
	<g>
		
			<line fill="none" stroke="#14A1B8" stroke-width="4" stroke-linecap="round" stroke-miterlimit="10" x1="676.1" y1="241.8" x2="676.1" y2="208.7"/>
		<g>
			<polygon fill="#14A1B8" points="685.9,211.5 676.1,194.6 666.3,211.5 			"/>
		</g>
	</g>
</g>
<g>
	<g>
		
			<line fill="none" stroke="#14A1B8" stroke-width="4" stroke-linecap="round" stroke-miterlimit="10" x1="503.5" y1="241.8" x2="503.5" y2="208.7"/>
		<g>
			<polygon fill="#14A1B8" points="513.3,211.5 503.5,194.6 493.8,211.5 			"/>
		</g>
	</g>
</g>
<g>
	<g>
		
			<line fill="none" stroke="#14A1B8" stroke-width="4" stroke-linecap="round" stroke-miterlimit="10" x1="331" y1="241.8" x2="331" y2="208.7"/>
		<g>
			<polygon fill="#14A1B8" points="340.8,211.5 331,194.6 321.2,211.5 			"/>
		</g>
	</g>
</g>
<g>
	<g>
		<line fill="none" stroke="#14A1B8" stroke-width="4" stroke-miterlimit="10" x1="676" y1="885.6" x2="676" y2="852.4"/>
		<g>
			<polygon fill="#14A1B8" points="685.8,855.3 676,838.4 666.2,855.3 			"/>
		</g>
	</g>
</g>
<text transform="matrix(1 0 0 1 814.7864 995.1289)" fill="#0D1B31" font-family="'ProximaNova-Regular'" font-size="21">Hadoop</text>
<g>
	<g>
		<line fill="none" stroke="#14A1B8" stroke-width="4" stroke-miterlimit="10" x1="849" y1="885.6" x2="849" y2="852.4"/>
		<g>
			<polygon fill="#14A1B8" points="858.8,855.3 849,838.4 839.2,855.3 			"/>
		</g>
	</g>
</g>
<g>
	<g>
		<line fill="none" stroke="#14A1B8" stroke-width="4" stroke-miterlimit="10" x1="502.7" y1="885.6" x2="502.7" y2="852.4"/>
		<g>
			<polygon fill="#14A1B8" points="512.5,855.3 502.7,838.4 492.9,855.3 			"/>
		</g>
	</g>
</g>
<g>
	<g>
		<line fill="none" stroke="#14A1B8" stroke-width="4" stroke-miterlimit="10" x1="329.4" y1="885.6" x2="329.4" y2="852.4"/>
		<g>
			<polygon fill="#14A1B8" points="339.2,855.3 329.4,838.4 319.6,855.3 			"/>
		</g>
	</g>
</g>
<g>
	<g>
		<line fill="none" stroke="#14A1B8" stroke-width="4" stroke-miterlimit="10" x1="156.1" y1="885.6" x2="156.1" y2="852.4"/>
		<g>
			<polygon fill="#14A1B8" points="165.9,855.3 156.1,838.4 146.3,855.3 			"/>
		</g>
	</g>
</g>
<g>
	<path fill="#DC342E" stroke="#DC342E" stroke-width="0.5" stroke-miterlimit="10" d="M843.8,961c-1,0-1.9-0.1-2.9-0.1
		c-0.1,0-0.3,0.3-0.2,0.4c0.2,1-0.2,1.8-0.8,2.5c-0.4,0.5-0.6,1.1-0.6,1.8c0,0.5-0.1,1-0.2,1.5c-0.2,0.8-0.9,1.1-1.7,1.2
		c-0.6,0-1.2,0-1.8-0.1c-1.4-0.3-2.8-0.7-4.2-1.1c-0.2-0.1-0.5-0.2-0.7-0.3c-1-0.6-1.2-1.3-0.9-2.3c0.1-0.4,0.3-0.8,0.5-1.3
		c-0.5-0.1-0.9-0.1-1.3-0.2c-2.5-0.6-4.7-3-4.9-5.6c0-0.3,0.1-0.7,0.4-1c0.3-0.4,0.7-0.8,1.1-1.1c0.8-0.7,1.3-1.6,1.6-2.6
		c0.1-0.5,0-1.1,0-1.6c0-1.5,0-3,0-4.6c-0.2,0-0.4,0-0.6,0c-1.1,0-1.7-0.4-2.2-1.4c-0.3-0.6-0.7-1.3-0.8-1.9
		c-0.1-0.5-0.3-1.1-0.1-1.6c0.8-2,2.4-3,4.4-3.7c0,0.2,0,0.3-0.1,0.4c-0.3,0.6-0.3,1.1,0.1,1.7c0.4,0.7,0.2,1.6,0,2.5
		c-0.3-0.3-0.5-0.6-0.7-0.9c-0.2,0.7-0.5,1.4-0.7,2.2c0.2-0.1,0.4-0.1,0.5-0.2c0.7-0.6,1.5-1.1,1.9-1.8c2.3-4,5.8-6.3,10.2-7.4
		c0.8-0.2,1.6-0.4,2.4-0.5c0.8-0.1,1.3-0.4,1.8-1c0.5-0.5,1.1-1,1.7-1.5c0.3-0.2,0.7-0.5,1-0.5c0.8-0.1,1.2-0.5,1.6-1.1
		c1.9-2.7,4.8-3.8,7.8-4.6c3.5-0.9,6.5,0,9.3,2.2c1.6,1.3,3.3,2.6,5,3.9c1,0.8,1.8,1.8,2.4,3c0.2,0.4,0.4,0.5,0.8,0.3
		c0.4-0.3,0.8-0.6,1.2-1c0.2-0.2,0.3-0.4,0.4-0.6c1.1-1.6,3.2-1.5,4,0.4c0.5,1.3,0.9,2.7,1.2,4.1c0.5,2.7,0.6,5.4-0.2,8.1
		c-0.9,3.2-2.7,5.6-5.9,6.5c-1.5,0.4-3,0.5-4.5,0.3c-1.2-0.1-1-0.3-1.3,0.8c-0.5,1.7-1.6,2.7-3.2,3.2c-1.2,0.4-2.3,0.2-3.3-0.7
		c-0.6-0.5-1.1-1-1.7-1.5c-0.1-0.1-0.3-0.2-0.6-0.5c0,0.3,0,0.5,0.1,0.6c0.1,0.3,0.2,0.6,0.4,0.9c0.9,1.8,1.2,3.7,1.1,5.8
		c0,0.2,0.1,0.5,0.1,0.7c0.1,0.7,0.2,1.4,0.1,2c-0.1,0.8-0.6,1.3-1.5,1.4c-1.9,0.1-3.9,0.3-5.8-0.3c-0.1,0-0.4,0-0.5,0.1
		c-1,0.9-2.1,1.5-2.8,2.7c-0.9,1.4-3.1,1.7-4.3,0.6c-1.5-1.3-2.6-3-3.3-4.9C842.5,962.4,842.8,961.6,843.8,961z M839.8,958.2
		C839.8,958.2,839.8,958.2,839.8,958.2c0.1,0.4,0.2,0.7,0.3,1.1c0.1,0.2,0.3,0.5,0.5,0.5c1.9,0.3,3.9,0.3,5.8,0
		c0.4-0.1,0.6-0.2,0.6-0.6c0.1-0.3,0.2-0.6,0.4-1c0,1,0,1.9,0,2.9c-0.3-0.6-0.6-0.4-0.9-0.2c-0.5,0.3-1,0.7-1.6,1
		c-0.9,0.5-1.1,0.9-0.7,1.8c0.6,1.2,1.3,2.4,2.2,3.4c1,1.2,2.3,1,3.3-0.3c0.2-0.3,0.4-0.6,0.7-0.8c0.9-0.8,1.9-1.5,2.8-2.3
		c0.7-0.6,1.3-1.2,1.8-1.9c1.5-2,2.3-4.3,3-6.7c0.1-0.5,0.2-1.1,0.3-1.6c0.1-0.4-0.1-0.5-0.4-0.7c-0.7-0.4-1.4-1-2.1-1.5
		c0,0,0.1-0.1,0.1-0.1c0.5,0.3,0.9,0.5,1.4,0.8c0.5,0.2,1,0.4,1.5,0.6c0.3,0.2,0.7,0.3,1,0.6c0.8,0.6,1.5,1.3,2.3,2
		c0.8,0.7,1.8,0.8,2.8,0.5c1.4-0.5,2.5-1.9,2.5-3.3c0-0.1-0.1-0.3-0.2-0.3c-0.5-0.2-0.7-0.1-0.8,0.8c-0.3,1.3-1.2,1.9-2.5,1.6
		c-0.3-0.1-0.5-0.1-0.8-0.2c0,0.1-0.1,0.1-0.1,0.2c0.2,0.2,0.5,0.4,0.7,0.5c0.3,0.1,0.6,0.1,0.9,0.2c-1.4,0.3-2.2-0.3-2-1.6
		c0.1-1.2,0.4-2.5,0.6-3.6c1.1,0.4,2.4,0.9,3.6,1.2c1.8,0.5,3.5,0.9,5.4,0.6c3.1-0.4,5.1-2.2,6.2-5c1.7-4.2,1-8.4-0.4-12.5
		c-0.5-1.3-1.6-1.4-2.4-0.3c-0.7,0.9-1.5,1.7-2.7,2.1c-0.8,0.2-0.9,0.7-0.8,1.5c0.1,1,0.1,2.1,0,3.1c-0.1,0.9-0.4,1.8-0.6,2.6
		c0-1.2,0.1-2.4,0.1-3.7c0-0.6-0.3-0.7-0.8-0.4c-0.4,0.3-0.8,0.7-1.1,1.2c-0.3,0.5-0.4,1.1-0.6,1.6c0.1-1.1,0-2.3,1.1-3.1
		c-1.3,0-2.1,0.7-2.6,1.9c0.5-2,1.4-2.5,3.4-2.1c0.1,0,0.4-0.1,0.4-0.2c0.1-0.4-0.2-0.8-0.6-0.9c-0.5,0-0.9,0-1.2,0
		c0.2-0.2,0.5-0.5,0.5-0.7c-0.1-0.6-0.6-0.5-1-0.3c-0.1-0.3-0.2-0.5-0.2-0.7c0.9-0.4,1.9-1,2.8,0.3c-0.7-2.3-2.4-4.4-4.3-4.6
		c-0.1-0.2,0-0.4-0.1-0.5c-1.2-1-2.4-2-3.6-2.9c-1.2-0.9-2.5-1.6-4-1.7c-3.4-0.3-6.5,0.9-9.2,2.8c-0.7,0.5-1.3,1.3-1.9,2
		c0,0.1,0.1,0.1,0.1,0.2c0.8,0,1.7,0,2.6,0c-0.9,0.2-1.8,0.4-2.7,0.5c-1.4,0.1-2.6,0.7-3.6,1.8c-1.5,1.8-3.1,3.6-4.7,5.3
		c-1.3,1.3-2.1,2.9-2.8,4.6c-0.3,0.7-0.3,1.4,0.1,2c0.7,1.1,1.5,2.1,2.2,3.2c0.8-0.9,1.5-1.9,2.3-2.9c-0.5,1.1-1.1,2.2-1.7,3.3
		c-0.3,0.7-0.6,1.4-0.8,2.1c-0.1,0.2-0.1,0.6,0,0.8c1.2,1.6,2.9,2.7,5.2,1.7c0.6-0.3,1.2-0.7,1.8-1c1.2-0.5,2.3-1.3,3.6-1.5
		c1.2-0.2,1.5-0.9,1.7-1.8c0.1-0.4,0.2-0.9,0.2-1.3c-0.1-1.7-0.2-3.3-0.4-5c-0.2-1.6-0.2-3.2,0.2-4.9c0.1,1.3,0.2,2.4,0.4,3.5
		c0.2,1.1,0.4,2.3,0.6,3.4c0.3,2,0.1,4-0.5,6c-0.1,0.4-0.3,0.6-0.8,0.7c-0.8,0.1-1.7,0.4-2.5,0.7c-1.2,0.5-2.3,1.1-3.4,1.7
		c-2.3,1.2-4.1,0.9-6-0.8c-1-0.9-1.1-1.8-0.6-2.9c0.2-0.5,0.2-1-0.1-1.5c-0.6-0.9-1.2-1.9-1.9-2.8c-0.7-1-0.8-2-0.3-3.2
		c0.8-1.7,1.7-3.4,3-4.8c0.7-0.7,1.3-1.5,1.9-2.2c0.1-0.1,0.2-0.3,0.4-0.5c-1,0.2-1.8,0.3-2.6,0.5c-7,1.6-12.5,8.7-10.6,16.8
		c0.6,2.7,1.8,5.2,3.3,7.6c0.2,0.3,0.3,0.6,0.2,0.9c-0.2,1.1-0.5,2.2-0.8,3.3c-0.3,1-0.2,1.5,0.8,1.9c1.5,0.6,3.1,1,4.7,1.1
		c1.1,0,1.5-0.3,1.5-1.4c0-1.1,0.4-1.9,1-2.7c0.4-0.6,0.6-1.3,0.6-2.1C839.7,960,839.8,959.1,839.8,958.2z M858.6,955.7
		c-0.9,3-2.1,5.9-4.3,8.3c0.3,0.1,0.5,0.2,0.8,0.2c1.2,0.1,2.3,0.1,3.5,0.1c1.3,0.1,1.6-0.7,1.5-1.9c-0.1-0.7-0.3-1.4-0.3-2.1
		C859.8,958.6,859.3,957.1,858.6,955.7z M828,954.1c-0.3,0.5-0.5,0.9-0.8,1.3c-0.4,0.5-0.8,0.9-1.3,1.3c-0.6,0.5-0.6,1.1-0.4,1.8
		c0.7,1.8,2,2.9,3.7,3.5c0.2,0.1,0.4,0.1,0.6,0.1c0.9,0,1.4-1.1,0.9-1.8c-1.1-1.8-2-3.6-2.7-5.6C828.2,954.4,828.1,954.2,828,954.1z
		 M828.3,943.9c-0.2,0.1-0.3,0.2-0.4,0.2c-0.4,0.2-0.8,0.4-1.2,0.6c-0.4,0.1-0.7,0-0.8-0.4c-0.1-0.3-0.4-0.6-0.1-1.1
		c0.3-0.4,0.4-1,0.5-1.5c0.2-0.7,0.3-1.3,0.4-2c0-0.1,0-0.2,0-0.3c-0.9,0.4-2,1.6-2.3,2.4c-0.1,0.4-0.1,0.9,0,1.3
		c0.2,0.6,0.5,1.1,0.7,1.6c0.4,0.9,0.9,1.2,1.8,1C827.9,945.5,828.2,945.1,828.3,943.9z"/>
	<path fill="#DC342E" stroke="#DC342E" stroke-width="0.5" stroke-miterlimit="10" d="M860.6,940.6c0.3-0.3,0.6-0.6,0.8-0.9
		c0.1-0.2,0.2-0.4,0.3-0.6c-0.3-0.1-0.6-0.3-0.9-0.3c-0.3,0-0.5,0.3-0.8,0.5c0,0.1,0.1,0.1,0.1,0.2c-0.1-0.2-0.2-0.5-0.3-0.8
		c-0.3,0.2-0.5,0.3-0.9,0.5c1-1.5,2-2.7,3.8-2.6c-0.1,0.1-0.2,0.2-0.3,0.3c0.4,0.5,0.8,1,1.2,1.6c0.1,0,0.4-0.1,0.7-0.1
		c0,0,0-0.1-0.1-0.1C863,939,861.8,939.8,860.6,940.6z"/>
	<path fill="#DC342E" stroke="#DC342E" stroke-width="0.5" stroke-miterlimit="10" d="M847.2,936.5c0.1-0.7,0.3-1.3,0.4-2
		c-0.4,0.1-0.9,0.5-1.5,1.6c-0.4,0.7-0.7,1.4-1.1,2.1c0-1,1.1-3.6,1.9-4.2c0.3-0.2,0.7-0.4,1-0.5c0.9-0.1,1.7-0.2,2.6-0.2
		c-0.2,0.1-0.4,0.2-0.7,0.2c-0.9,0.1-1.4,0.6-1.8,1.4c-0.3,0.5-0.5,1-0.8,1.5C847.3,936.5,847.2,936.5,847.2,936.5z"/>
	<path fill="#DC342E" stroke="#DC342E" stroke-width="0.5" stroke-miterlimit="10" d="M873.1,936.6c1.6-0.3,2.6-1.3,3.5-2.5
		C876,935.7,874.6,936.7,873.1,936.6z"/>
	<path fill="#DC342E" stroke="#DC342E" stroke-width="0.5" stroke-miterlimit="10" d="M856.9,935.7c-0.1-1.1,0.5-1.9,1.7-2.3
		C858.1,934.1,857.5,935,856.9,935.7z"/>
	<path fill="#DC342E" stroke="#DC342E" stroke-width="0.5" stroke-miterlimit="10" d="M862.8,948.3c-0.4,0.4-0.9,0.8-1.3,1.2
		C861.5,948.6,861.7,948.5,862.8,948.3z"/>
</g>

</svg>
